# xmcd CD database file generated by OrangeCD 6.3
#
# Track frame offsets:
#	150
#	14073
#	30312
#	46780
#	61014
#	76292
#	90970
#	106011
#	123586
#	139771
#	158065
#	174527
#	186858
#	209373
#	226662
#
# Disc length: 3248 seconds
#
# Revision: 0
# Processed by: cddbd v1.5.2PL0 Copyright (c) Steve Scherf et al.
# Submitted via: OrangeCD 6.3
#
DISCID=af0cae0f
DTITLE=Various Artist - King Easy Radio Sampler, Vol. 3
DYEAR=1900
DGENRE=
TTITLE0=The Fortunate Sons - This Train
TTITLE1=W. V. Hill - Dyin' To Make A Livin'
TTITLE2=Matt King - American Dream
TTITLE3=Jason Harrod - When I Fly Away
TTITLE4=Natasha Borzilova - Cheap Escape
TTITLE5=Benyaro - Bullet-like Belief
TTITLE6=Jeff Finlin - Ballad Of A Plain Man
TTITLE7=Paco Shipp - Never Satisified
TTITLE8=Wendy Newcomer - Going Til You're Gone
TTITLE9=Daniel Lanois - Where Will I Be
TTITLE10=Dan Tyler - Watch What They're Saying
TTITLE11=Jordan Chassan - Hard Work Bein' A Fool
TTITLE12=Natalie Merchant - Which Side Are You On?
TTITLE13=Walter Hyatt - Motor City Man
TTITLE14=Roger D Ferris - Coffee For One
EXTD=
EXTT0=
EXTT1=
EXTT2=
EXTT3=
EXTT4=
EXTT5=
EXTT6=
EXTT7=
EXTT8=
EXTT9=
EXTT10=
EXTT11=
EXTT12=
EXTT13=
EXTT14=
PLAYORDER=
